HIERARCHY
ROOT Hips
{
	OFFSET 0.00 0.00 0.00
	CHANNELS 6 Xposition Yposition Zposition Xrotation Zrotation Yrotation
	JOINT RightUpLeg
	{
		OFFSET -0.1249735206 -0.0016844273 0.0032616369
		CHANNELS 3 Xrotation Zrotation Yrotation
		JOINT RightLeg
		{
			OFFSET -0.0147063732 -0.4283443093 -0.0673218220
			CHANNELS 3 Xrotation Zrotation Yrotation
			JOINT RightFoot
			{
				OFFSET -0.0022873282 -0.3852335811 -0.0630454868
				CHANNELS 3 Xrotation Zrotation Yrotation
				End Site
				{
					OFFSET 0.0002712309 0.0385248661 0.0062937364
				}
			}
		}
	}
	JOINT LeftUpLeg
	{
		OFFSET 0.1249735206 0.0016844273 -0.0032616407
		CHANNELS 3 Xrotation Zrotation Yrotation
		JOINT LeftLeg
		{
			OFFSET 0.0248899907 -0.4176042080 -0.0591978729
			CHANNELS 3 Xrotation Zrotation Yrotation
			JOINT LeftFoot
			{
				OFFSET 0.0122471750 -0.4140213728 -0.0737222806
				CHANNELS 3 Xrotation Zrotation Yrotation
				End Site
				{
					OFFSET -0.0012381524 0.0414047688 0.0073547438
				}
			}
		}
	}
	JOINT Spine
	{
		OFFSET 0.0000000000 0.0000000000 0.0000000000
		CHANNELS 3 Xrotation Zrotation Yrotation
		JOINT Spine1
		{
			OFFSET 0.0008101464 0.1884446144 -0.0214453451
			CHANNELS 3 Xrotation Zrotation Yrotation
			JOINT Spine2
			{
				OFFSET 0.0008101469 0.1884446144 -0.0214453507
				CHANNELS 3 Xrotation Zrotation Yrotation
				JOINT RightShoulder
				{
					OFFSET -0.0029725395 0.1889647245 -0.0214158930
					CHANNELS 3 Xrotation Zrotation Yrotation
					JOINT RightArm
					{
						OFFSET -0.1849959344 -0.0007016659 0.0039457185
						CHANNELS 3 Xrotation Zrotation Yrotation
						JOINT RightForeArm
						{
							OFFSET -0.0696687847 -0.2949751616 0.0055942643
							CHANNELS 3 Xrotation Zrotation Yrotation
							JOINT RightHand
							{
								OFFSET -0.0048014522 -0.2470811009 0.0651807114
								CHANNELS 3 Xrotation Zrotation Yrotation
								End Site
								{
									OFFSET 0.0002770126 0.0246534348 -0.0067328662
								}
							}
						}
					}
				}
				JOINT LeftShoulder
				{
					OFFSET 0.0045986534 0.1891027689 -0.0216089096
					CHANNELS 3 Xrotation Zrotation Yrotation
					JOINT LeftArm
					{
						OFFSET 0.1851785630 0.0043221712 -0.0046907561
						CHANNELS 3 Xrotation Zrotation Yrotation
						JOINT LeftForeArm
						{
							OFFSET 0.0528826565 -0.3070411682 0.0182247069
							CHANNELS 3 Xrotation Zrotation Yrotation
							JOINT LeftHand
							{
								OFFSET -0.0032439530 -0.2540602088 0.0869253352
								CHANNELS 3 Xrotation Zrotation Yrotation
								End Site
								{
									OFFSET 0.0003250241 0.0254057050 -0.0086933747
								}
							}
						}
					}
				}
				JOINT Neck
				{
					OFFSET 0.0008125794 0.1890105009 -0.0215097386
					CHANNELS 3 Xrotation Zrotation Yrotation
					JOINT Head
					{
						OFFSET 0.0122695006 0.2249898911 0.0474814698
						CHANNELS 3 Xrotation Zrotation Yrotation
						JOINT Nose
						{
							OFFSET -0.0016647009 -0.0081883669 0.0950489715
							CHANNELS 3 Xrotation Zrotation Yrotation
							JOINT RightEye
							{
								OFFSET -0.0317046791 0.0341215134 -0.0227140784
								CHANNELS 3 Xrotation Zrotation Yrotation
								End Site
								{
									OFFSET -0.0583346710 -0.0204650164 -0.0734699368
								}
							}
							JOINT LeftEye
							{
								OFFSET 0.0360847451 0.0300793648 -0.0218750313
								CHANNELS 3 Xrotation Zrotation Yrotation
								End Site
								{
									OFFSET 0.0572840162 -0.0273591280 -0.0720388964
								}
							}
						}
						End Site
						{
							OFFSET 0.0012269504 0.0224989653 0.0047481470
						}
					}
				}
			}
		}
	}
}
MOTION
Frames: 6
Frame Time: 0.041666667
0.0008941020 0.9459078312 0.0565904379 nan nan nan 0.0000000000 -0.0000000000 0.0000000000 0.0000000000 -0.0000000000 0.0000000000 0.0000000000 -0.0000000000 0.0000000000 0.0000000000 -0.0000000000 0.0000000000 0.0000000000 -0.0000000000 0.0000000000 0.0000000000 -0.0000000000 0.0000000000 0.0000000000 -0.0000000000 0.0000000000 0.0000000000 -0.0000000000 0.0000000000 0.0000000000 -0.0000000000 0.0000000000 0.0000000000 -0.0000000000 0.0000000000 0.0000000000 -0.0000000000 0.0000000000 0.0000000000 -0.0000000000 0.0000000000 0.0000000000 -0.0000000000 0.0000000000 0.0000000000 -0.0000000000 0.0000000000 0.0000000000 -0.0000000000 0.0000000000 0.0000000000 -0.0000000000 0.0000000000 0.0000000000 -0.0000000000 0.0000000000 0.0000000000 -0.0000000000 0.0000000000 0.0000000000 -0.0000000000 0.0000000000 0.0000000000 -0.0000000000 0.0000000000 0.0000000000 -0.0000000000 0.0000000000 0.0000000000 -0.0000000000 0.0000000000 
0.0008478891 0.9460880756 0.0572035424 0.0073922076 0.0348822214 -0.4920792580 177.7613983154 179.8981018066 -179.9409484863 5.6511473656 0.0023705482 -0.0335806832 0.0000000000 -0.0000000000 0.0000000000 0.5523729324 0.1804479659 0.0082066413 178.7847900391 -179.5177001953 -179.9448547363 0.0000000000 -0.0000000000 0.0000000000 179.8609161377 179.9580993652 -179.9946746826 0.0000000000 -0.0000000000 0.0000000000 0.0029110599 -0.0395346694 0.3186075389 0.0001742392 -0.0738391727 -0.3941949308 179.9170989990 -179.9757537842 -179.9808654785 0.8343806267 0.9301028252 0.2364184558 0.0000000000 -0.0000000000 0.0000000000 0.0008575759 -0.0529855303 -0.0924162641 0.5983905196 0.4169957936 0.1299512684 178.8493957520 -179.4094085693 179.8191833496 179.8683929443 -179.9142456055 179.9724578857 0.2367801219 0.2462777048 -0.0643571466 0.4490332305 0.2592396736 1.2298609018 179.9784088135 178.8239288330 179.8984222412 0.0000000000 -0.0000000000 0.0000000000 0.0000000000 -0.0000000000 0.0000000000 
0.0008059901 0.9451273680 0.0589206740 0.0041727019 -0.6170951724 -1.0750352144 177.8755798340 178.9585418701 179.8896026611 5.2749409676 -0.4524591565 0.0216987785 0.0000000000 -0.0000000000 0.0000000000 1.4547269344 0.1309964508 0.0696724951 176.6911621094 179.6972198486 179.8386230469 0.0000000000 -0.0000000000 0.0000000000 179.7826995850 179.2954254150 -179.9202270508 0.0000000000 -0.0000000000 0.0000000000 0.0034881283 -0.1316456199 1.0846412182 179.9928894043 -179.7070312500 -179.8665008545 0.3201104403 0.1591004282 -0.0721711963 1.2627677917 1.1723433733 0.2985850573 0.0000000000 -0.0000000000 0.0000000000 0.0123180849 0.3453680277 -0.1755897999 179.9721832275 -179.7331542969 179.9794311523 0.6125842333 0.2916913033 0.0937127918 0.0000000000 -0.0000000000 0.0000000000 0.5480180979 0.2884313464 -0.0892984420 0.4591448903 0.2324615419 1.0962451696 179.9767303467 178.7355499268 179.8907775879 0.0000000000 -0.0000000000 0.0000000000 0.0000000000 -0.0000000000 0.0000000000 
0.0006185799 0.9458658099 0.0586024523 0.0034011488 -0.5752815008 -0.9955279827 177.6744995117 178.6451873779 179.8388366699 5.4529490471 -1.1383364201 0.0989111662 0.0543708615 0.0599423461 -0.0101462761 1.0148831606 0.2748054564 0.0239355750 177.5128936768 179.9978485107 179.9257049561 0.0000000000 -0.0000000000 0.0000000000 179.7809295654 179.3846740723 -179.9302215576 0.0000000000 -0.0000000000 0.0000000000 0.0034544503 -0.1343813390 1.1393209696 179.9979705811 -179.9361572266 -179.8460388184 0.2028832883 0.0720900074 -0.0464317128 1.6217691898 1.0547915697 0.2627043724 0.0906127691 -0.0022051437 -0.0016224732 0.0094499160 0.1769254506 -0.2279414982 0.0000000000 -0.0000000000 0.0000000000 0.4074372649 0.1103113890 0.0329728462 0.0954014137 0.0645019338 0.0209107045 0.3978409469 0.5226782560 -0.1301239133 1.1299051046 0.2247542590 1.0416979790 179.9803619385 178.9308776855 179.9077148438 0.0000000000 -0.0000000000 0.0000000000 0.0000000000 -0.0000000000 0.0000000000 
0.0004240394 0.9464469552 0.0582354963 179.9984436035 -179.3094177246 179.1557159424 177.9949493408 178.4081878662 179.7901000977 4.1958894730 -1.4876558781 0.1630623043 0.0714289844 0.0615412369 -0.0105173718 0.8708623052 0.3522758484 0.0046400400 177.6457061768 -179.9731750488 179.9354248047 0.0000000000 -0.0000000000 0.0000000000 179.7797851562 179.3373107910 -179.9249420166 0.0000000000 -0.0000000000 0.0000000000 0.0034839846 -0.1310053021 1.1450772285 0.0039804182 0.2154538035 0.3216409683 0.2818022668 -0.3617126644 -0.0742552727 1.8693639040 1.2036906481 0.3022190630 0.1536838263 -0.0556521714 -0.0170062594 0.0064840131 0.0323627591 -0.2456631064 179.9143981934 179.8543853760 179.9937896729 0.5758088827 0.3084235191 0.0998984128 0.1788418889 0.1179677099 0.0382835157 0.2278396636 0.5965895653 -0.1371243298 1.9694755077 0.0656290129 0.1101164892 179.9719543457 178.4930114746 179.8697662354 0.0000000000 -0.0000000000 0.0000000000 0.0000000000 -0.0000000000 0.0000000000 
0.0001973943 0.9473618269 0.0575144626 179.9916076660 -179.2131042480 179.4027404785 178.2312316895 178.3036346436 179.7672424316 3.2434034348 -1.7589168549 0.2177847922 0.0000000000 -0.0000000000 0.0000000000 0.3402935266 0.5943525434 -0.0621611625 178.4586029053 -179.7250976562 -179.9929351807 0.0000000000 -0.0000000000 0.0000000000 179.7540893555 179.3112030029 -179.9220428467 0.0000000000 -0.0000000000 0.0000000000 0.0034241416 -0.1042453721 0.9571207166 0.0153851248 0.6906232238 0.2925996780 0.3253202140 -1.1639451981 -0.1019765735 1.7952241898 0.9292415380 0.2257808894 0.2171457857 -0.1322720200 -0.0388337076 179.9980468750 -179.6804351807 179.7650604248 0.1935437173 0.6605279446 0.0735913292 0.0338861421 0.2456487417 0.0836982504 0.2063587457 0.1320450008 0.0428082310 179.5130462646 179.5017852783 179.9192047119 2.7931411266 -0.0601667389 -0.7844926715 179.9630584717 178.0570373535 179.8320159912 0.0000000000 -0.0000000000 0.0000000000 0.0000000000 -0.0000000000 0.0000000000 
